<svg width="155" height="69" xmlns="http://www.w3.org/2000/svg" xmlns:xlink="http://www.w3.org/1999/xlink" xml:space="preserve" overflow="hidden"><g transform="translate(-821 -509)"><g><g><g><g><path d="M41.627 14.6108C39.4216 11.5784 36.9405 9.28108 34.2757 7.9027 31.5189 6.43243 28.4865 5.6973 24.9946 5.6973 19.4811 5.6973 14.8865 7.71892 10.9351 11.7622 7.07568 15.8054 5.14595 20.6757 5.14595 26.1892 5.14595 32.1622 7.07568 37.1243 10.9351 41.1676 14.7946 45.2108 19.4811 47.2324 24.9946 47.2324 28.3946 47.2324 31.427 46.4973 34.1838 45.1189 36.9405 43.7405 39.3297 41.627 41.3514 38.7784L47.0486 38.7784C44.8432 42.9135 41.8108 46.2216 38.0432 48.5189 34.2757 50.8162 30.0486 51.9189 25.3622 51.9189 18.1027 51.9189 12.1297 49.4378 7.25946 44.5676 2.38919 39.6973 0 33.5405 0 26.1892 0 22.7892 0.643243 19.4811 1.92973 16.3568 3.21622 13.2324 5.14595 10.4757 7.62703 7.99459 9.92432 5.6973 12.5892 3.85946 15.5297 2.66487 18.4703 1.47027 21.5946 0.827027 24.9946 0.827027 29.8649 0.827027 34.2757 2.02162 38.1351 4.41081 41.9946 6.8 45.1189 10.2 47.4162 14.5189L41.627 14.5189 41.627 14.6108Z" fill="#AB1E2C" fill-rule="evenodd" fill-opacity="1" transform="matrix(1.00957 0 0 1 822 510)"/><path d="M54.9514 6.61622 54.9514 46.4054 64.9676 46.4054C69.4703 46.4054 73.1459 45.4865 76.1784 43.7405 76.9135 44.6595 77.6487 45.4865 78.4757 46.3135 78.7514 46.5892 79.1189 46.9568 79.3946 47.2324 77.4649 48.5189 75.3513 49.4378 73.1459 50.0811 70.7568 50.7243 66.9892 51 62.027 51L50.2649 51 50.2649 1.92973 64.2324 1.92973C68.0919 1.92973 71.3081 2.2973 73.973 3.12432 76.6378 3.85946 78.9351 5.14595 80.8649 6.8 83.7135 9.18919 85.827 12.0378 87.3892 15.4378 88.9514 18.8378 89.6865 22.5135 89.6865 26.373 89.6865 30.6919 88.8595 34.6432 87.1135 38.227 86.8378 38.8703 86.4703 39.4216 86.1946 40.0649 86.0108 39.8811 85.9189 39.7892 85.7351 39.6054 84.6324 38.4108 83.6216 37.1243 82.8865 35.7459 83.9892 33.0811 84.5405 29.8649 84.5405 26.2811 84.5405 23.0649 83.9892 20.1243 82.7946 17.3676 81.6 14.6108 80.0378 12.3135 77.8324 10.4757 76.2703 9.0973 74.4324 8.08649 72.5027 7.53513 70.4811 6.89189 67.6324 6.61622 63.8649 6.61622L54.9514 6.61622Z" fill="#AB1E2C" fill-rule="evenodd" fill-opacity="1" transform="matrix(1.00957 0 0 1 822 510)"/><path d="M114.681 14.6108C112.476 11.5784 109.995 9.28108 107.33 7.9027 104.573 6.43243 101.541 5.78919 98.0486 5.78919 93.8216 5.78919 90.0541 6.98378 86.7459 9.46486 85.7351 8.17838 84.6324 6.89189 83.4378 5.78919 85.0919 4.59459 86.8378 3.58378 88.6757 2.84865 91.6162 1.65405 94.7405 1.01081 98.1405 1.01081 103.011 1.01081 107.422 2.20541 111.281 4.59459 115.141 6.98378 118.265 10.3838 120.562 14.7027L114.681 14.7027 114.681 14.6108ZM80.1297 17.2757C79.3027 15.6216 78.2 14.0595 76.8216 12.773 76.0865 13.8757 75.5351 15.0703 74.9838 16.3568 73.6973 19.4811 73.0541 22.6973 73.0541 26.1892 73.0541 33.5405 75.4432 39.6973 80.3135 44.6595 85.1838 49.6216 91.1568 52.0108 98.4162 52.0108 103.103 52.0108 107.33 50.9081 111.097 48.6108 114.865 46.3135 117.897 43.0973 120.103 38.8703L114.405 38.8703C112.384 41.7189 109.995 43.8324 107.238 45.2108 104.481 46.5892 101.449 47.3243 98.0486 47.3243 92.5351 47.3243 87.8486 45.3027 83.9892 41.2595 80.1297 37.2162 78.1081 32.1622 78.1081 26.1892 78.1081 22.973 78.8432 20.0324 80.1297 17.2757Z" fill="#20275E" fill-rule="evenodd" fill-opacity="1" transform="matrix(1.00957 0 0 1 822 510)"/><path d="M128.189 27.8432 128.189 46.4054 134.989 46.4054C138.941 46.4054 141.881 45.6703 143.811 44.1081 145.741 42.6378 146.659 40.2486 146.659 37.1243 146.659 34 145.649 31.7027 143.719 30.1405 141.789 28.5784 138.849 27.8432 134.897 27.8432L128.189 27.8432ZM128.189 6.61622 128.189 23.1568 131.13 23.1568C135.908 23.1568 139.216 22.5135 141.146 21.227 143.076 19.9405 143.995 17.7351 143.995 14.7946 143.995 11.9459 143.076 9.92432 141.238 8.63784 139.4 7.35135 136.459 6.70811 132.416 6.70811L128.189 6.70811 128.189 6.61622ZM123.595 1.92973 132.784 1.92973C138.389 1.92973 142.432 2.94054 145.005 5.05405 147.578 7.16757 148.957 10.4757 148.957 14.8865 148.957 17.0919 148.497 19.0216 147.67 20.6757 146.751 22.2378 145.465 23.6162 143.719 24.627 146.384 25.7297 148.405 27.2919 149.692 29.3135 150.978 31.3351 151.714 33.7243 151.714 36.573 151.714 41.5351 150.335 45.2108 147.578 47.6 144.822 49.8973 140.503 51.0919 134.53 51.0919L123.686 51.0919 123.686 1.92973 123.595 1.92973Z" fill="#AB1E2C" fill-rule="evenodd" fill-opacity="1" transform="matrix(1.00957 0 0 1 822 510)"/><path d="M4.87027 8.36216C4.41081 8.54595 3.85946 8.63784 3.30811 8.63784 1.28649 8.63784 0.367568 7.62703 0.367568 5.6973 0.367568 3.85946 1.37838 2.94054 3.30811 2.94054 3.85946 2.94054 4.41081 3.03243 4.87027 3.21622L4.87027 3.67568C4.41081 3.49189 3.85946 3.4 3.4 3.4 1.83784 3.4 1.1027 4.13514 1.1027 5.60541 1.1027 7.16757 1.83784 7.99459 3.4 7.99459 3.95135 7.99459 4.41081 7.9027 4.87027 7.71892L4.87027 8.36216ZM6.61622 5.6973C6.61622 7.25946 7.35135 7.99459 8.72973 7.99459 10.1081 7.99459 10.7514 7.25946 10.7514 5.6973 10.7514 4.22703 10.1081 3.4 8.72973 3.4 7.35135 3.4 6.61622 4.13514 6.61622 5.6973ZM5.88108 5.6973C5.88108 3.76757 6.8 2.84865 8.72973 2.84865 10.5676 2.84865 11.4865 3.76757 11.4865 5.6973 11.4865 7.62703 10.5676 8.54595 8.72973 8.54595 6.8 8.54595 5.88108 7.62703 5.88108 5.6973ZM12.5892 6.34054 12.5892 2.84865 13.3243 2.84865 13.3243 6.34054C13.3243 7.44324 13.8757 7.99459 14.9784 7.99459 16.0811 7.99459 16.6324 7.44324 16.6324 6.34054L16.6324 2.84865 17.3676 2.84865 17.3676 6.34054C17.3676 7.81081 16.5405 8.54595 14.9784 8.54595 13.4162 8.54595 12.5892 7.81081 12.5892 6.34054ZM18.6541 8.54595 18.6541 2.84865 19.3892 2.84865 22.8811 7.44324 22.8811 2.84865 23.6162 2.84865 23.6162 8.54595 22.8811 8.54595 19.3892 3.95135 19.3892 8.54595 18.6541 8.54595ZM29.1297 8.36216C28.6703 8.54595 28.1189 8.63784 27.5676 8.63784 25.5459 8.63784 24.627 7.62703 24.627 5.6973 24.627 3.85946 25.6378 2.94054 27.5676 2.94054 28.1189 2.94054 28.6703 3.03243 29.1297 3.21622L29.1297 3.67568C28.6703 3.49189 28.1189 3.4 27.6595 3.4 26.0973 3.4 25.3622 4.13514 25.3622 5.60541 25.3622 7.16757 26.0973 7.99459 27.6595 7.99459 28.2108 7.99459 28.6703 7.9027 29.1297 7.71892L29.1297 8.36216ZM31.1514 2.84865 31.1514 8.54595 30.4162 8.54595 30.4162 2.84865 31.1514 2.84865ZM33.3568 2.84865 33.3568 7.9027 36.2973 7.9027 36.2973 8.45405 32.6216 8.45405 32.6216 2.75676 33.3568 2.75676 33.3568 2.84865ZM39.7892 5.6973C39.7892 7.25946 40.5243 7.99459 41.9027 7.99459 43.2811 7.99459 43.9243 7.25946 43.9243 5.6973 43.9243 4.22703 43.2811 3.4 41.9027 3.4 40.4324 3.4 39.7892 4.13514 39.7892 5.6973ZM38.9622 5.6973C38.9622 3.76757 39.8811 2.84865 41.8108 2.84865 43.6486 2.84865 44.5676 3.76757 44.5676 5.6973 44.5676 7.62703 43.6486 8.54595 41.8108 8.54595 39.973 8.54595 38.9622 7.62703 38.9622 5.6973ZM45.7622 8.54595 45.7622 2.84865 46.4973 2.84865 49.9892 7.44324 49.9892 2.84865 50.7243 2.84865 50.7243 8.54595 49.9892 8.54595 46.4973 3.95135 46.4973 8.54595 45.7622 8.54595ZM56.0541 7.9027C57.4324 7.9027 58.1676 7.07568 58.1676 5.51351 58.1676 4.13514 57.4324 3.4 56.0541 3.4L54.7676 3.4 54.7676 7.9027 56.0541 7.9027ZM53.9405 8.54595 53.9405 2.84865 56.0541 2.84865C57.8919 2.84865 58.9027 3.76757 58.9027 5.51351 58.9027 7.53513 57.9838 8.45405 56.0541 8.45405L53.9405 8.45405 53.9405 8.54595ZM60.0973 8.54595 59.3622 8.54595 61.7513 2.84865 62.5784 2.84865 64.9676 8.54595 64.1405 8.54595 63.4054 6.70811 61.5676 6.70811 61.7513 6.15676 63.1297 6.15676 62.1189 3.58378 60.0973 8.54595ZM66.6216 2.84865 66.6216 8.54595 65.8865 8.54595 65.8865 2.84865 66.6216 2.84865ZM68 8.54595 68 2.84865 70.3892 2.84865C71.4919 2.84865 72.0432 3.30811 72.0432 4.22703 72.0432 4.96216 71.4919 5.51351 70.4811 5.88108L72.4108 8.54595 71.4 8.54595 69.5622 5.97297 69.5622 5.51351C70.6649 5.32973 71.2162 4.96216 71.2162 4.22703 71.2162 3.67568 70.9405 3.4 70.2973 3.4L68.6432 3.4 68.6432 8.45405 68 8.45405 68 8.54595ZM72.5946 2.84865 73.4216 2.84865 75.0757 5.78919 76.7297 2.84865 77.5568 2.84865 75.4432 6.52432 75.4432 8.54595 74.7081 8.54595 74.7081 6.52432 72.5946 2.84865ZM84.6324 8.36216C84.173 8.54595 83.6216 8.63784 83.0703 8.63784 81.0486 8.63784 80.1297 7.62703 80.1297 5.6973 80.1297 3.85946 81.1405 2.94054 83.0703 2.94054 83.6216 2.94054 84.173 3.03243 84.6324 3.21622L84.6324 3.67568C84.173 3.49189 83.6216 3.4 83.1622 3.4 81.6 3.4 80.8649 4.13514 80.8649 5.60541 80.8649 7.16757 81.6 7.99459 83.1622 7.99459 83.7135 7.99459 84.173 7.9027 84.6324 7.71892L84.6324 8.36216ZM86.0108 8.54595 85.2757 8.54595 87.6649 2.84865 88.4919 2.84865 90.8811 8.54595 90.0541 8.54595 89.3189 6.8 87.4811 6.8 87.6649 6.24865 89.0432 6.24865 88.0324 3.67568 86.0108 8.54595ZM94.8324 2.84865 90.5135 2.84865 90.5135 3.4 92.2595 3.4 92.2595 8.45405 92.9946 8.45405 92.9946 3.4 94.7405 3.4 94.7405 2.84865 94.8324 2.84865ZM99.5189 2.84865 99.5189 3.4 97.773 3.4 97.773 8.45405 97.0378 8.45405 97.0378 3.4 95.2919 3.4 95.2919 2.84865 99.5189 2.84865ZM101.173 2.84865 101.173 7.9027 104.114 7.9027 104.114 8.45405 100.438 8.45405 100.438 2.75676 101.173 2.75676 101.173 2.84865ZM108.616 2.84865 108.616 3.4 105.676 3.4 105.676 5.32973 108.524 5.32973 108.524 5.88108 105.676 5.88108 105.676 7.9027 108.708 7.9027 108.708 8.45405 104.941 8.45405 104.941 2.75676 108.616 2.75676 108.616 2.84865ZM111.832 8.54595 111.832 2.84865 114.222 2.84865C115.324 2.84865 115.876 3.30811 115.876 4.13514 115.876 4.77838 115.508 5.23784 114.865 5.51351 115.6 5.6973 115.968 6.06486 115.968 6.8 115.968 7.9027 115.416 8.45405 114.222 8.45405L111.832 8.45405 111.832 8.54595ZM114.13 7.9027C114.773 7.9027 115.141 7.53513 115.141 6.89189 115.141 6.24865 114.681 5.88108 113.762 5.88108L113.486 5.88108 113.486 5.42162C114.589 5.23784 115.141 4.87027 115.141 4.22703 115.141 3.67568 114.865 3.4 114.222 3.4L112.568 3.4 112.568 7.9027 114.13 7.9027ZM117.07 8.54595 117.07 2.84865 119.459 2.84865C120.562 2.84865 121.114 3.30811 121.114 4.22703 121.114 4.96216 120.562 5.51351 119.551 5.88108L121.481 8.54595 120.47 8.54595 118.632 5.97297 118.632 5.51351C119.735 5.32973 120.286 4.96216 120.286 4.22703 120.286 3.67568 120.011 3.4 119.368 3.4L117.714 3.4 117.714 8.45405 117.07 8.45405 117.07 8.54595ZM125.892 2.84865 125.892 3.4 122.951 3.4 122.951 5.32973 125.8 5.32973 125.8 5.88108 122.951 5.88108 122.951 7.9027 125.984 7.9027 125.984 8.45405 122.216 8.45405 122.216 2.75676 125.892 2.75676 125.892 2.84865ZM130.762 2.84865 130.762 3.4 127.822 3.4 127.822 5.32973 130.67 5.32973 130.67 5.88108 127.822 5.88108 127.822 7.9027 130.854 7.9027 130.854 8.45405 127.086 8.45405 127.086 2.75676 130.762 2.75676 130.762 2.84865ZM133.978 7.9027C135.357 7.9027 136.092 7.07568 136.092 5.51351 136.092 4.13514 135.357 3.4 133.978 3.4L132.692 3.4 132.692 7.9027 133.978 7.9027ZM131.957 8.54595 131.957 2.84865 133.978 2.84865C135.816 2.84865 136.827 3.76757 136.827 5.51351 136.827 7.53513 135.908 8.45405 133.978 8.45405L131.957 8.45405 131.957 8.54595ZM138.757 2.84865 138.757 8.54595 138.022 8.54595 138.022 2.84865 138.757 2.84865ZM140.227 8.54595 140.227 2.84865 140.962 2.84865 144.454 7.44324 144.454 2.84865 145.189 2.84865 145.189 8.54595 144.454 8.54595 140.962 3.95135 140.962 8.54595 140.227 8.54595ZM150.703 8.27027C150.243 8.45405 149.784 8.54595 149.232 8.54595 147.211 8.54595 146.2 7.53513 146.2 5.60541 146.2 3.76757 147.211 2.84865 149.141 2.84865 149.692 2.84865 150.243 2.94054 150.703 3.12432L150.703 3.67568C150.243 3.49189 149.692 3.4 149.232 3.4 147.67 3.4 146.935 4.13514 146.935 5.60541 146.935 7.16757 147.67 7.99459 149.232 7.99459 149.508 7.99459 149.784 7.99459 150.059 7.9027L150.059 5.97297 150.795 5.97297 150.795 8.27027 150.703 8.27027Z" fill="#20275E" fill-rule="evenodd" fill-opacity="1" transform="matrix(1.00957 0 0 1 822.928 566.973)"/><path d="M0.275676 0.367568 150.703 0.367568 150.703 0.918919 0.275676 0.918919 0.275676 0.367568ZM0.275676 10.4757 150.703 10.4757 150.703 11.027 0.275676 11.027 0.275676 10.4757Z" fill="#000000" fill-rule="evenodd" fill-opacity="1" transform="matrix(1.00957 0 0 1 822.928 566.973)"/></g></g></g></g></g></svg>